# xmcd
#
# Track frame offsets: 
#        187
#        15862
#        25580
#        41325
#        69900
#        94950
#        105800
#        122557
#        134382
#        158655
#        179387
#        219292
#
# Disc length: 3150 seconds
#
# Revision: 1
# Processed by: cddbd v1.5.2PL0 Copyright (c) Steve Scherf et al.
# Submitted via: ExactAudioCopy v1.0b3
#
DISCID=840c4c0c
DTITLE=SAYAMA, Masahiro - HYMN FOR NOBODY
DYEAR=1997
DGENRE=Jazz
TTITLE0=IN THE WE SMALL HOURS (OF THE MORNING)
TTITLE1=KEW'S JAVA
TTITLE2=SAYA-MAMBO
TTITLE3=INFINITE HOPE
TTITLE4=TEARS OF NATURE
TTITLE5=GIANT STEPS
TTITLE6=OBJECT DANCING
TTITLE7=DONNA LEE
TTITLE8=HYMN TO FREEDOM
TTITLE9=TOUGH
TTITLE10=WHO KNOWS? ～MAZURKA MONGOLIAN
TTITLE11=HYMN FOR NOBODY
EXTD=
EXTT0=
EXTT1=
EXTT2=
EXTT3=
EXTT4=
EXTT5=
EXTT6=
EXTT7=
EXTT8=
EXTT9=
EXTT10=
EXTT11=
PLAYORDER=
